<mxfile host="app.diagrams.net" agent="Mozilla/5.0 (Windows NT 10.0; Win64; x64) AppleWebKit/537.36 (KHTML, like Gecko) Chrome/138.0.0.0 Safari/537.36 Edg/138.0.0.0" version="28.0.9">
  <diagram name="Página-1" id="qdVF2zYg-Ips_xFXBjyf">
    <mxGraphModel grid="1" page="1" gridSize="10" guides="1" tooltips="1" connect="1" arrows="1" fold="1" pageScale="1" pageWidth="827" pageHeight="1169" math="0" shadow="0">
      <root>
        <mxCell id="0" />
        <mxCell id="1" parent="0" />
        <mxCell id="u8HoLATWEpsCpUUx1uBB-64" value="&lt;span&gt;&lt;font style=&quot;color: rgb(0, 0, 0);&quot;&gt;altaPrestamo(nombreUsuario:string,idMaterial:int, fechaSolicitud:DtFecha,&lt;/font&gt;&lt;/span&gt;&lt;div&gt;&lt;span&gt;&lt;font style=&quot;color: rgb(0, 0, 0);&quot;&gt;fechaDevolucion:DtFecha, IdBibliotecario:String)&lt;/font&gt;&lt;/span&gt;&lt;/div&gt;" style="html=1;verticalAlign=bottom;endArrow=block;curved=0;rounded=0;" edge="1" parent="1">
          <mxGeometry x="-0.0009" width="80" relative="1" as="geometry">
            <mxPoint x="307" y="2240" as="sourcePoint" />
            <mxPoint x="637" y="2240" as="targetPoint" />
            <mxPoint as="offset" />
          </mxGeometry>
        </mxCell>
        <mxCell id="IK1fP0KDzD4i9eeec2DN-3" value="DSS: Alta Usuario&amp;nbsp; (Con Memoria)" style="shape=umlFrame;whiteSpace=wrap;html=1;pointerEvents=0;fillColor=#f8cecc;strokeColor=#b85450;width=200;height=30;" vertex="1" parent="1">
          <mxGeometry x="330" y="150" width="450" height="540" as="geometry" />
        </mxCell>
        <mxCell id="_yzf1_SDmJfY8t1Ya5ZM-11" value="&lt;div&gt;DSS: Suspender lector (con memoria)&lt;/div&gt;" style="shape=umlFrame;whiteSpace=wrap;html=1;pointerEvents=0;fillColor=#f8cecc;strokeColor=#b85450;width=170;height=30;" vertex="1" parent="1">
          <mxGeometry x="1050" y="150" width="500" height="340" as="geometry" />
        </mxCell>
        <mxCell id="_yzf1_SDmJfY8t1Ya5ZM-12" value="Usuario&lt;div&gt;Administrador&lt;/div&gt;" style="shape=umlActor;verticalLabelPosition=bottom;verticalAlign=top;html=1;" vertex="1" parent="1">
          <mxGeometry x="1100" y="200" width="30" height="60" as="geometry" />
        </mxCell>
        <mxCell id="_yzf1_SDmJfY8t1Ya5ZM-14" value="" style="endArrow=open;endSize=12;dashed=1;html=1;rounded=0;" edge="1" parent="1">
          <mxGeometry width="160" relative="1" as="geometry">
            <mxPoint x="1114.47" y="296" as="sourcePoint" />
            <mxPoint x="1114" y="510" as="targetPoint" />
            <Array as="points">
              <mxPoint x="1114.47" y="416" />
            </Array>
          </mxGeometry>
        </mxCell>
        <mxCell id="_yzf1_SDmJfY8t1Ya5ZM-15" value=":Sistema" style="html=1;whiteSpace=wrap;" vertex="1" parent="1">
          <mxGeometry x="1410" y="260" width="71" height="30" as="geometry" />
        </mxCell>
        <mxCell id="_yzf1_SDmJfY8t1Ya5ZM-16" value="" style="endArrow=open;endSize=12;dashed=1;html=1;rounded=0;" edge="1" parent="1">
          <mxGeometry width="160" relative="1" as="geometry">
            <mxPoint x="1446" y="290" as="sourcePoint" />
            <mxPoint x="1446" y="510" as="targetPoint" />
          </mxGeometry>
        </mxCell>
        <mxCell id="_yzf1_SDmJfY8t1Ya5ZM-17" value="loop" style="shape=umlFrame;whiteSpace=wrap;html=1;pointerEvents=0;fillColor=#d5e8d4;strokeColor=#82b366;" vertex="1" parent="1">
          <mxGeometry x="1075" y="300" width="400" height="130" as="geometry" />
        </mxCell>
        <mxCell id="_yzf1_SDmJfY8t1Ya5ZM-19" value="" style="shape=table;startSize=0;container=1;collapsible=1;childLayout=tableLayout;fixedRows=1;rowLines=0;fontStyle=0;align=center;resizeLast=1;strokeColor=none;fillColor=none;collapsible=0;whiteSpace=wrap;html=1;" vertex="1" parent="1">
          <mxGeometry x="1090" y="310" width="330" height="30" as="geometry" />
        </mxCell>
        <mxCell id="_yzf1_SDmJfY8t1Ya5ZM-20" value="" style="shape=tableRow;horizontal=0;startSize=0;swimlaneHead=0;swimlaneBody=0;fillColor=none;collapsible=0;dropTarget=0;points=[[0,0.5],[1,0.5]];portConstraint=eastwest;top=0;left=0;right=0;bottom=0;" vertex="1" parent="_yzf1_SDmJfY8t1Ya5ZM-19">
          <mxGeometry width="330" height="30" as="geometry" />
        </mxCell>
        <mxCell id="_yzf1_SDmJfY8t1Ya5ZM-21" value="" style="shape=partialRectangle;connectable=0;fillColor=none;top=0;left=0;bottom=0;right=0;editable=1;overflow=hidden;" vertex="1" parent="_yzf1_SDmJfY8t1Ya5ZM-20">
          <mxGeometry width="30" height="30" as="geometry">
            <mxRectangle width="30" height="30" as="alternateBounds" />
          </mxGeometry>
        </mxCell>
        <mxCell id="_yzf1_SDmJfY8t1Ya5ZM-22" value=" [Se desea modificar el estado de un usuario]" style="shape=partialRectangle;connectable=0;fillColor=none;top=0;left=0;bottom=0;right=0;align=left;spacingLeft=6;overflow=hidden;" vertex="1" parent="_yzf1_SDmJfY8t1Ya5ZM-20">
          <mxGeometry x="30" width="300" height="30" as="geometry">
            <mxRectangle width="300" height="30" as="alternateBounds" />
          </mxGeometry>
        </mxCell>
        <mxCell id="_yzf1_SDmJfY8t1Ya5ZM-23" value="suspenderLector(nombre:string, mail:string)" style="html=1;verticalAlign=bottom;endArrow=block;curved=0;rounded=0;" edge="1" parent="1">
          <mxGeometry width="80" relative="1" as="geometry">
            <mxPoint x="1115" y="370" as="sourcePoint" />
            <mxPoint x="1445" y="370" as="targetPoint" />
          </mxGeometry>
        </mxCell>
        <mxCell id="u8HoLATWEpsCpUUx1uBB-19" value=":Sistema" style="html=1;whiteSpace=wrap;" vertex="1" parent="1">
          <mxGeometry x="689.5" y="260" width="71" height="30" as="geometry" />
        </mxCell>
        <mxCell id="u8HoLATWEpsCpUUx1uBB-20" value="" style="endArrow=open;endSize=12;dashed=1;html=1;rounded=0;" edge="1" parent="1">
          <mxGeometry width="160" relative="1" as="geometry">
            <mxPoint x="369.5" y="300" as="sourcePoint" />
            <mxPoint x="369.5" y="740" as="targetPoint" />
            <Array as="points">
              <mxPoint x="369.5" y="420" />
            </Array>
          </mxGeometry>
        </mxCell>
        <mxCell id="u8HoLATWEpsCpUUx1uBB-21" value="" style="endArrow=open;endSize=12;dashed=1;html=1;rounded=0;" edge="1" parent="1">
          <mxGeometry width="160" relative="1" as="geometry">
            <mxPoint x="725.5" y="290" as="sourcePoint" />
            <mxPoint x="725.5" y="740" as="targetPoint" />
          </mxGeometry>
        </mxCell>
        <mxCell id="u8HoLATWEpsCpUUx1uBB-24" value="Usuario&lt;div&gt;Administrador&lt;/div&gt;" style="shape=umlActor;verticalLabelPosition=bottom;verticalAlign=top;html=1;" vertex="1" parent="1">
          <mxGeometry x="354.5" y="200" width="30" height="60" as="geometry" />
        </mxCell>
        <mxCell id="u8HoLATWEpsCpUUx1uBB-27" value="alt" style="shape=umlFrame;whiteSpace=wrap;html=1;pointerEvents=0;fillColor=#dae8fc;strokeColor=#6c8ebf;" vertex="1" parent="1">
          <mxGeometry x="359.5" y="400" width="370" height="170" as="geometry" />
        </mxCell>
        <mxCell id="u8HoLATWEpsCpUUx1uBB-32" value="[Else]" style="text;html=1;align=center;verticalAlign=middle;whiteSpace=wrap;rounded=0;" vertex="1" parent="1">
          <mxGeometry x="359.5" y="490.89" width="60" height="30" as="geometry" />
        </mxCell>
        <mxCell id="u8HoLATWEpsCpUUx1uBB-33" value="[el usuario es lector]" style="text;html=1;align=center;verticalAlign=middle;whiteSpace=wrap;rounded=0;" vertex="1" parent="1">
          <mxGeometry x="419.5" y="410" width="110" height="30" as="geometry" />
        </mxCell>
        <mxCell id="u8HoLATWEpsCpUUx1uBB-34" value="" style="endArrow=none;dashed=1;html=1;rounded=0;fillColor=#dae8fc;strokeColor=#6c8ebf;exitX=-0.001;exitY=0.578;exitDx=0;exitDy=0;exitPerimeter=0;" edge="1" parent="1">
          <mxGeometry width="50" height="50" relative="1" as="geometry">
            <mxPoint x="359.13" y="489.26" as="sourcePoint" />
            <mxPoint x="729.5" y="491" as="targetPoint" />
          </mxGeometry>
        </mxCell>
        <mxCell id="u8HoLATWEpsCpUUx1uBB-35" value="loop" style="shape=umlFrame;whiteSpace=wrap;html=1;pointerEvents=0;fillColor=#d5e8d4;strokeColor=#82b366;" vertex="1" parent="1">
          <mxGeometry x="349.5" y="310" width="400" height="280" as="geometry" />
        </mxCell>
        <mxCell id="u8HoLATWEpsCpUUx1uBB-36" value="" style="shape=table;startSize=0;container=1;collapsible=1;childLayout=tableLayout;fixedRows=1;rowLines=0;fontStyle=0;align=center;resizeLast=1;strokeColor=none;fillColor=none;collapsible=0;whiteSpace=wrap;html=1;" vertex="1" parent="1">
          <mxGeometry x="369.5" y="310" width="240" height="30" as="geometry" />
        </mxCell>
        <mxCell id="u8HoLATWEpsCpUUx1uBB-37" value="" style="shape=tableRow;horizontal=0;startSize=0;swimlaneHead=0;swimlaneBody=0;fillColor=none;collapsible=0;dropTarget=0;points=[[0,0.5],[1,0.5]];portConstraint=eastwest;top=0;left=0;right=0;bottom=0;" vertex="1" parent="u8HoLATWEpsCpUUx1uBB-36">
          <mxGeometry width="240" height="30" as="geometry" />
        </mxCell>
        <mxCell id="u8HoLATWEpsCpUUx1uBB-38" value="" style="shape=partialRectangle;connectable=0;fillColor=none;top=0;left=0;bottom=0;right=0;editable=1;overflow=hidden;" vertex="1" parent="u8HoLATWEpsCpUUx1uBB-37">
          <mxGeometry width="30" height="30" as="geometry">
            <mxRectangle width="30" height="30" as="alternateBounds" />
          </mxGeometry>
        </mxCell>
        <mxCell id="u8HoLATWEpsCpUUx1uBB-39" value=" [Se desea ingresar un Usuario]" style="shape=partialRectangle;connectable=0;fillColor=none;top=0;left=0;bottom=0;right=0;align=left;spacingLeft=6;overflow=hidden;" vertex="1" parent="u8HoLATWEpsCpUUx1uBB-37">
          <mxGeometry x="30" width="210" height="30" as="geometry">
            <mxRectangle width="210" height="30" as="alternateBounds" />
          </mxGeometry>
        </mxCell>
        <mxCell id="_yzf1_SDmJfY8t1Ya5ZM-39" value="&lt;div&gt;DSS: Cambiar zona (con memoria)&lt;/div&gt;" style="shape=umlFrame;whiteSpace=wrap;html=1;pointerEvents=0;fillColor=#f8cecc;strokeColor=#b85450;width=170;height=30;" vertex="1" parent="1">
          <mxGeometry x="1050" y="560" width="500" height="340" as="geometry" />
        </mxCell>
        <mxCell id="_yzf1_SDmJfY8t1Ya5ZM-40" value="Usuario&lt;div&gt;Administrador&lt;/div&gt;" style="shape=umlActor;verticalLabelPosition=bottom;verticalAlign=top;html=1;" vertex="1" parent="1">
          <mxGeometry x="1100" y="610" width="30" height="60" as="geometry" />
        </mxCell>
        <mxCell id="_yzf1_SDmJfY8t1Ya5ZM-41" value="" style="endArrow=open;endSize=12;dashed=1;html=1;rounded=0;" edge="1" parent="1">
          <mxGeometry width="160" relative="1" as="geometry">
            <mxPoint x="1114.47" y="706" as="sourcePoint" />
            <mxPoint x="1114" y="920" as="targetPoint" />
            <Array as="points">
              <mxPoint x="1114.47" y="826" />
            </Array>
          </mxGeometry>
        </mxCell>
        <mxCell id="_yzf1_SDmJfY8t1Ya5ZM-42" value=":Sistema" style="html=1;whiteSpace=wrap;" vertex="1" parent="1">
          <mxGeometry x="1410" y="670" width="71" height="30" as="geometry" />
        </mxCell>
        <mxCell id="_yzf1_SDmJfY8t1Ya5ZM-43" value="" style="endArrow=open;endSize=12;dashed=1;html=1;rounded=0;" edge="1" parent="1">
          <mxGeometry width="160" relative="1" as="geometry">
            <mxPoint x="1446" y="700" as="sourcePoint" />
            <mxPoint x="1446" y="920" as="targetPoint" />
          </mxGeometry>
        </mxCell>
        <mxCell id="_yzf1_SDmJfY8t1Ya5ZM-44" value="loop" style="shape=umlFrame;whiteSpace=wrap;html=1;pointerEvents=0;fillColor=#d5e8d4;strokeColor=#82b366;" vertex="1" parent="1">
          <mxGeometry x="1075" y="710" width="400" height="130" as="geometry" />
        </mxCell>
        <mxCell id="_yzf1_SDmJfY8t1Ya5ZM-45" value="" style="shape=table;startSize=0;container=1;collapsible=1;childLayout=tableLayout;fixedRows=1;rowLines=0;fontStyle=0;align=center;resizeLast=1;strokeColor=none;fillColor=none;collapsible=0;whiteSpace=wrap;html=1;" vertex="1" parent="1">
          <mxGeometry x="1090" y="720" width="330" height="30" as="geometry" />
        </mxCell>
        <mxCell id="_yzf1_SDmJfY8t1Ya5ZM-46" value="" style="shape=tableRow;horizontal=0;startSize=0;swimlaneHead=0;swimlaneBody=0;fillColor=none;collapsible=0;dropTarget=0;points=[[0,0.5],[1,0.5]];portConstraint=eastwest;top=0;left=0;right=0;bottom=0;" vertex="1" parent="_yzf1_SDmJfY8t1Ya5ZM-45">
          <mxGeometry width="330" height="30" as="geometry" />
        </mxCell>
        <mxCell id="_yzf1_SDmJfY8t1Ya5ZM-47" value="" style="shape=partialRectangle;connectable=0;fillColor=none;top=0;left=0;bottom=0;right=0;editable=1;overflow=hidden;" vertex="1" parent="_yzf1_SDmJfY8t1Ya5ZM-46">
          <mxGeometry width="30" height="30" as="geometry">
            <mxRectangle width="30" height="30" as="alternateBounds" />
          </mxGeometry>
        </mxCell>
        <mxCell id="_yzf1_SDmJfY8t1Ya5ZM-48" value=" [Se desea modificar la zona de un usuario]" style="shape=partialRectangle;connectable=0;fillColor=none;top=0;left=0;bottom=0;right=0;align=left;spacingLeft=6;overflow=hidden;" vertex="1" parent="_yzf1_SDmJfY8t1Ya5ZM-46">
          <mxGeometry x="30" width="300" height="30" as="geometry">
            <mxRectangle width="300" height="30" as="alternateBounds" />
          </mxGeometry>
        </mxCell>
        <mxCell id="_yzf1_SDmJfY8t1Ya5ZM-49" value="modificarZona(nombre:string, mail:string, zona: enumZona)" style="html=1;verticalAlign=bottom;endArrow=block;curved=0;rounded=0;" edge="1" parent="1">
          <mxGeometry x="-0.0009" width="80" relative="1" as="geometry">
            <mxPoint x="1115" y="780" as="sourcePoint" />
            <mxPoint x="1445" y="780" as="targetPoint" />
            <mxPoint as="offset" />
          </mxGeometry>
        </mxCell>
        <mxCell id="_yzf1_SDmJfY8t1Ya5ZM-52" value="opt" style="shape=umlFrame;whiteSpace=wrap;html=1;pointerEvents=0;fillColor=#f8cecc;strokeColor=#b85450;" vertex="1" parent="1">
          <mxGeometry x="1090" y="783" width="370" height="50" as="geometry" />
        </mxCell>
        <mxCell id="_yzf1_SDmJfY8t1Ya5ZM-53" value="" style="shape=table;startSize=0;container=1;collapsible=1;childLayout=tableLayout;fixedRows=1;rowLines=0;fontStyle=0;align=center;resizeLast=1;strokeColor=none;fillColor=none;collapsible=0;whiteSpace=wrap;html=1;" vertex="1" parent="1">
          <mxGeometry x="1110" y="783" width="330" height="30" as="geometry" />
        </mxCell>
        <mxCell id="_yzf1_SDmJfY8t1Ya5ZM-54" value="" style="shape=tableRow;horizontal=0;startSize=0;swimlaneHead=0;swimlaneBody=0;fillColor=none;collapsible=0;dropTarget=0;points=[[0,0.5],[1,0.5]];portConstraint=eastwest;top=0;left=0;right=0;bottom=0;" vertex="1" parent="_yzf1_SDmJfY8t1Ya5ZM-53">
          <mxGeometry width="330" height="30" as="geometry" />
        </mxCell>
        <mxCell id="_yzf1_SDmJfY8t1Ya5ZM-55" value="" style="shape=partialRectangle;connectable=0;fillColor=none;top=0;left=0;bottom=0;right=0;editable=1;overflow=hidden;" vertex="1" parent="_yzf1_SDmJfY8t1Ya5ZM-54">
          <mxGeometry width="30" height="30" as="geometry">
            <mxRectangle width="30" height="30" as="alternateBounds" />
          </mxGeometry>
        </mxCell>
        <mxCell id="_yzf1_SDmJfY8t1Ya5ZM-56" value=" [El usuario no existe]" style="shape=partialRectangle;connectable=0;fillColor=none;top=0;left=0;bottom=0;right=0;align=left;spacingLeft=6;overflow=hidden;" vertex="1" parent="_yzf1_SDmJfY8t1Ya5ZM-54">
          <mxGeometry x="30" width="300" height="30" as="geometry">
            <mxRectangle width="300" height="30" as="alternateBounds" />
          </mxGeometry>
        </mxCell>
        <mxCell id="_yzf1_SDmJfY8t1Ya5ZM-57" value="mostrarError()" style="html=1;verticalAlign=bottom;endArrow=block;curved=0;rounded=0;" edge="1" parent="1">
          <mxGeometry x="-0.0009" width="80" relative="1" as="geometry">
            <mxPoint x="1116" y="828" as="sourcePoint" />
            <mxPoint x="1446" y="828" as="targetPoint" />
            <mxPoint as="offset" />
          </mxGeometry>
        </mxCell>
        <mxCell id="IK1fP0KDzD4i9eeec2DN-5" value="&lt;div&gt;DSS: Alta donación libro (con memoria)&lt;/div&gt;" style="shape=umlFrame;whiteSpace=wrap;html=1;pointerEvents=0;fillColor=#f8cecc;strokeColor=#b85450;width=170;height=30;" vertex="1" parent="1">
          <mxGeometry x="970" y="1040" width="500" height="340" as="geometry" />
        </mxCell>
        <mxCell id="IK1fP0KDzD4i9eeec2DN-6" value="Usuario&lt;div&gt;Administrador&lt;/div&gt;" style="shape=umlActor;verticalLabelPosition=bottom;verticalAlign=top;html=1;" vertex="1" parent="1">
          <mxGeometry x="1020" y="1090" width="30" height="60" as="geometry" />
        </mxCell>
        <mxCell id="IK1fP0KDzD4i9eeec2DN-7" value="" style="endArrow=open;endSize=12;dashed=1;html=1;rounded=0;" edge="1" parent="1">
          <mxGeometry width="160" relative="1" as="geometry">
            <mxPoint x="1034.47" y="1186" as="sourcePoint" />
            <mxPoint x="1034" y="1400" as="targetPoint" />
            <Array as="points">
              <mxPoint x="1034.47" y="1306" />
            </Array>
          </mxGeometry>
        </mxCell>
        <mxCell id="IK1fP0KDzD4i9eeec2DN-8" value=":Sistema" style="html=1;whiteSpace=wrap;" vertex="1" parent="1">
          <mxGeometry x="1330" y="1150" width="71" height="30" as="geometry" />
        </mxCell>
        <mxCell id="IK1fP0KDzD4i9eeec2DN-9" value="" style="endArrow=open;endSize=12;dashed=1;html=1;rounded=0;" edge="1" parent="1">
          <mxGeometry width="160" relative="1" as="geometry">
            <mxPoint x="1366" y="1180" as="sourcePoint" />
            <mxPoint x="1366" y="1400" as="targetPoint" />
          </mxGeometry>
        </mxCell>
        <mxCell id="IK1fP0KDzD4i9eeec2DN-10" value="loop" style="shape=umlFrame;whiteSpace=wrap;html=1;pointerEvents=0;fillColor=#d5e8d4;strokeColor=#82b366;" vertex="1" parent="1">
          <mxGeometry x="995" y="1190" width="400" height="130" as="geometry" />
        </mxCell>
        <mxCell id="IK1fP0KDzD4i9eeec2DN-11" value="" style="shape=table;startSize=0;container=1;collapsible=1;childLayout=tableLayout;fixedRows=1;rowLines=0;fontStyle=0;align=center;resizeLast=1;strokeColor=none;fillColor=none;collapsible=0;whiteSpace=wrap;html=1;" vertex="1" parent="1">
          <mxGeometry x="1010" y="1200" width="330" height="30" as="geometry" />
        </mxCell>
        <mxCell id="IK1fP0KDzD4i9eeec2DN-12" value="" style="shape=tableRow;horizontal=0;startSize=0;swimlaneHead=0;swimlaneBody=0;fillColor=none;collapsible=0;dropTarget=0;points=[[0,0.5],[1,0.5]];portConstraint=eastwest;top=0;left=0;right=0;bottom=0;" vertex="1" parent="IK1fP0KDzD4i9eeec2DN-11">
          <mxGeometry width="330" height="30" as="geometry" />
        </mxCell>
        <mxCell id="IK1fP0KDzD4i9eeec2DN-13" value="" style="shape=partialRectangle;connectable=0;fillColor=none;top=0;left=0;bottom=0;right=0;editable=1;overflow=hidden;" vertex="1" parent="IK1fP0KDzD4i9eeec2DN-12">
          <mxGeometry width="30" height="30" as="geometry">
            <mxRectangle width="30" height="30" as="alternateBounds" />
          </mxGeometry>
        </mxCell>
        <mxCell id="IK1fP0KDzD4i9eeec2DN-14" value=" [Se desea registrar una nueva donación]" style="shape=partialRectangle;connectable=0;fillColor=none;top=0;left=0;bottom=0;right=0;align=left;spacingLeft=6;overflow=hidden;" vertex="1" parent="IK1fP0KDzD4i9eeec2DN-12">
          <mxGeometry x="30" width="300" height="30" as="geometry">
            <mxRectangle width="300" height="30" as="alternateBounds" />
          </mxGeometry>
        </mxCell>
        <mxCell id="IK1fP0KDzD4i9eeec2DN-15" value="altaDonacionLibro(titulo:string, cantPag: int)" style="html=1;verticalAlign=bottom;endArrow=block;curved=0;rounded=0;" edge="1" parent="1">
          <mxGeometry x="-0.0009" width="80" relative="1" as="geometry">
            <mxPoint x="1035" y="1260" as="sourcePoint" />
            <mxPoint x="1365" y="1260" as="targetPoint" />
            <mxPoint as="offset" />
          </mxGeometry>
        </mxCell>
        <mxCell id="_yzf1_SDmJfY8t1Ya5ZM-58" value="opt" style="shape=umlFrame;whiteSpace=wrap;html=1;pointerEvents=0;fillColor=#f8cecc;strokeColor=#b85450;" vertex="1" parent="1">
          <mxGeometry x="1090" y="380" width="370" height="40" as="geometry" />
        </mxCell>
        <mxCell id="_yzf1_SDmJfY8t1Ya5ZM-59" value="" style="shape=table;startSize=0;container=1;collapsible=1;childLayout=tableLayout;fixedRows=1;rowLines=0;fontStyle=0;align=center;resizeLast=1;strokeColor=none;fillColor=none;collapsible=0;whiteSpace=wrap;html=1;" vertex="1" parent="1">
          <mxGeometry x="1113" y="374.39" width="330" height="30" as="geometry" />
        </mxCell>
        <mxCell id="_yzf1_SDmJfY8t1Ya5ZM-60" value="" style="shape=tableRow;horizontal=0;startSize=0;swimlaneHead=0;swimlaneBody=0;fillColor=none;collapsible=0;dropTarget=0;points=[[0,0.5],[1,0.5]];portConstraint=eastwest;top=0;left=0;right=0;bottom=0;" vertex="1" parent="_yzf1_SDmJfY8t1Ya5ZM-59">
          <mxGeometry width="330" height="30" as="geometry" />
        </mxCell>
        <mxCell id="_yzf1_SDmJfY8t1Ya5ZM-61" value="" style="shape=partialRectangle;connectable=0;fillColor=none;top=0;left=0;bottom=0;right=0;editable=1;overflow=hidden;" vertex="1" parent="_yzf1_SDmJfY8t1Ya5ZM-60">
          <mxGeometry width="30" height="30" as="geometry">
            <mxRectangle width="30" height="30" as="alternateBounds" />
          </mxGeometry>
        </mxCell>
        <mxCell id="_yzf1_SDmJfY8t1Ya5ZM-62" value=" [El usuario no existe]" style="shape=partialRectangle;connectable=0;fillColor=none;top=0;left=0;bottom=0;right=0;align=left;spacingLeft=6;overflow=hidden;" vertex="1" parent="_yzf1_SDmJfY8t1Ya5ZM-60">
          <mxGeometry x="30" width="300" height="30" as="geometry">
            <mxRectangle width="300" height="30" as="alternateBounds" />
          </mxGeometry>
        </mxCell>
        <mxCell id="_yzf1_SDmJfY8t1Ya5ZM-63" value="mostrarError()" style="html=1;verticalAlign=bottom;endArrow=block;curved=0;rounded=0;" edge="1" parent="1">
          <mxGeometry x="-0.0009" width="80" relative="1" as="geometry">
            <mxPoint x="1116" y="413.39" as="sourcePoint" />
            <mxPoint x="1446" y="413.39" as="targetPoint" />
            <mxPoint as="offset" />
          </mxGeometry>
        </mxCell>
        <mxCell id="_yzf1_SDmJfY8t1Ya5ZM-64" value="&lt;div&gt;DSS: Listar donaciones&lt;/div&gt;" style="shape=umlFrame;whiteSpace=wrap;html=1;pointerEvents=0;fillColor=#f8cecc;strokeColor=#b85450;width=170;height=30;" vertex="1" parent="1">
          <mxGeometry x="239.5" y="1030" width="500" height="400" as="geometry" />
        </mxCell>
        <mxCell id="_yzf1_SDmJfY8t1Ya5ZM-65" value="Usuario&lt;div&gt;Administrador&lt;/div&gt;" style="shape=umlActor;verticalLabelPosition=bottom;verticalAlign=top;html=1;" vertex="1" parent="1">
          <mxGeometry x="289.5" y="1080" width="30" height="60" as="geometry" />
        </mxCell>
        <mxCell id="_yzf1_SDmJfY8t1Ya5ZM-66" value="" style="endArrow=open;endSize=12;dashed=1;html=1;rounded=0;" edge="1" parent="1">
          <mxGeometry width="160" relative="1" as="geometry">
            <mxPoint x="303.97" y="1176" as="sourcePoint" />
            <mxPoint x="303.5" y="1450" as="targetPoint" />
            <Array as="points">
              <mxPoint x="303.97" y="1296" />
            </Array>
          </mxGeometry>
        </mxCell>
        <mxCell id="_yzf1_SDmJfY8t1Ya5ZM-67" value=":Sistema" style="html=1;whiteSpace=wrap;" vertex="1" parent="1">
          <mxGeometry x="599.5" y="1140" width="71" height="30" as="geometry" />
        </mxCell>
        <mxCell id="_yzf1_SDmJfY8t1Ya5ZM-68" value="" style="endArrow=open;endSize=12;dashed=1;html=1;rounded=0;" edge="1" parent="1">
          <mxGeometry width="160" relative="1" as="geometry">
            <mxPoint x="635.5" y="1170" as="sourcePoint" />
            <mxPoint x="635.5" y="1450" as="targetPoint" />
          </mxGeometry>
        </mxCell>
        <mxCell id="_yzf1_SDmJfY8t1Ya5ZM-74" value="listarDonaciones(fecha:dtFecha):set(DtDonacion)" style="html=1;verticalAlign=bottom;endArrow=block;curved=0;rounded=0;" edge="1" parent="1">
          <mxGeometry width="80" relative="1" as="geometry">
            <mxPoint x="304.5" y="1250" as="sourcePoint" />
            <mxPoint x="634.5" y="1250" as="targetPoint" />
          </mxGeometry>
        </mxCell>
        <mxCell id="_yzf1_SDmJfY8t1Ya5ZM-83" value="alt" style="shape=umlFrame;whiteSpace=wrap;html=1;pointerEvents=0;fillColor=#dae8fc;strokeColor=#6c8ebf;" vertex="1" parent="1">
          <mxGeometry x="287.5" y="1190" width="370" height="170" as="geometry" />
        </mxCell>
        <mxCell id="_yzf1_SDmJfY8t1Ya5ZM-84" value="[listar por fecha]" style="text;html=1;align=center;verticalAlign=middle;resizable=0;points=[];autosize=1;strokeColor=none;fillColor=none;" vertex="1" parent="1">
          <mxGeometry x="335.5" y="1198" width="110" height="30" as="geometry" />
        </mxCell>
        <mxCell id="_yzf1_SDmJfY8t1Ya5ZM-85" value="" style="endArrow=none;dashed=1;html=1;rounded=0;fillColor=#dae8fc;strokeColor=#6c8ebf;exitX=-0.001;exitY=0.578;exitDx=0;exitDy=0;exitPerimeter=0;" edge="1" parent="1">
          <mxGeometry width="50" height="50" relative="1" as="geometry">
            <mxPoint x="288.63" y="1280" as="sourcePoint" />
            <mxPoint x="659" y="1281.74" as="targetPoint" />
          </mxGeometry>
        </mxCell>
        <mxCell id="_yzf1_SDmJfY8t1Ya5ZM-86" value="[else]" style="text;html=1;align=center;verticalAlign=middle;resizable=0;points=[];autosize=1;strokeColor=none;fillColor=none;" vertex="1" parent="1">
          <mxGeometry x="299.5" y="1275" width="50" height="30" as="geometry" />
        </mxCell>
        <mxCell id="_yzf1_SDmJfY8t1Ya5ZM-87" value="listarDonaciones():set(DtDonacion)" style="html=1;verticalAlign=bottom;endArrow=block;curved=0;rounded=0;" edge="1" parent="1">
          <mxGeometry x="-0.0012" width="80" relative="1" as="geometry">
            <mxPoint x="307.5" y="1314.18" as="sourcePoint" />
            <mxPoint x="637.5" y="1314.18" as="targetPoint" />
            <mxPoint as="offset" />
          </mxGeometry>
        </mxCell>
        <mxCell id="u8HoLATWEpsCpUUx1uBB-47" value="" style="group" connectable="0" vertex="1" parent="1">
          <mxGeometry x="369.5" y="350" width="360" height="50" as="geometry" />
        </mxCell>
        <mxCell id="u8HoLATWEpsCpUUx1uBB-22" value="" style="endArrow=block;endFill=1;html=1;edgeStyle=orthogonalEdgeStyle;align=left;verticalAlign=top;rounded=0;startSize=10;" edge="1" parent="u8HoLATWEpsCpUUx1uBB-47">
          <mxGeometry x="-1" relative="1" as="geometry">
            <mxPoint y="30" as="sourcePoint" />
            <mxPoint x="360" y="30" as="targetPoint" />
          </mxGeometry>
        </mxCell>
        <mxCell id="_yzf1_SDmJfY8t1Ya5ZM-90" value="&#xa;&lt;span style=&quot;color: rgb(0, 0, 0); font-family: Helvetica; font-size: 12px; font-style: normal; font-variant-ligatures: normal; font-variant-caps: normal; font-weight: 400; letter-spacing: normal; orphans: 2; text-align: center; text-indent: 0px; text-transform: none; widows: 2; word-spacing: 0px; -webkit-text-stroke-width: 0px; white-space: normal; background-color: rgb(236, 236, 236); text-decoration-thickness: initial; text-decoration-style: initial; text-decoration-color: initial; display: inline !important; float: none;&quot;&gt;altaUsuario(nombre:string, correo:string, tipo:string)&lt;/span&gt;&#xa;&#xa;" style="text;html=1;align=center;verticalAlign=middle;whiteSpace=wrap;rounded=0;" vertex="1" parent="u8HoLATWEpsCpUUx1uBB-47">
          <mxGeometry x="15" width="330" height="50" as="geometry" />
        </mxCell>
        <mxCell id="u8HoLATWEpsCpUUx1uBB-48" value="" style="group" connectable="0" vertex="1" parent="1">
          <mxGeometry x="369.5" y="444.89" width="360" height="30" as="geometry" />
        </mxCell>
        <mxCell id="u8HoLATWEpsCpUUx1uBB-28" value="" style="endArrow=block;endFill=1;html=1;edgeStyle=orthogonalEdgeStyle;align=left;verticalAlign=top;rounded=0;" edge="1" parent="u8HoLATWEpsCpUUx1uBB-48">
          <mxGeometry x="-1" relative="1" as="geometry">
            <mxPoint y="28" as="sourcePoint" />
            <mxPoint x="360" y="28" as="targetPoint" />
          </mxGeometry>
        </mxCell>
        <mxCell id="u8HoLATWEpsCpUUx1uBB-29" value="crearLector(direccion:string, fechaDeRegistro:dtFecha, estado: enumEstado, zona:enumZona)" style="text;html=1;align=center;verticalAlign=middle;whiteSpace=wrap;rounded=0;" vertex="1" parent="u8HoLATWEpsCpUUx1uBB-48">
          <mxGeometry x="25" width="310" height="30" as="geometry" />
        </mxCell>
        <mxCell id="u8HoLATWEpsCpUUx1uBB-49" value="" style="group" connectable="0" vertex="1" parent="1">
          <mxGeometry x="369.5" y="520.89" width="400.5" height="30" as="geometry" />
        </mxCell>
        <mxCell id="u8HoLATWEpsCpUUx1uBB-30" value="" style="endArrow=block;endFill=1;html=1;edgeStyle=orthogonalEdgeStyle;align=left;verticalAlign=top;rounded=0;" edge="1" parent="u8HoLATWEpsCpUUx1uBB-49">
          <mxGeometry x="-1" relative="1" as="geometry">
            <mxPoint y="29" as="sourcePoint" />
            <mxPoint x="360" y="29" as="targetPoint" />
          </mxGeometry>
        </mxCell>
        <mxCell id="u8HoLATWEpsCpUUx1uBB-46" value="&lt;span style=&quot;font-size: 12px; text-align: center; background-color: rgb(236, 236, 236);&quot;&gt;crearBibliotecario(numeroEmpleado:int, zona:enumZona)&lt;/span&gt;" style="text;strokeColor=none;fillColor=none;spacingLeft=4;spacingRight=4;overflow=hidden;rotatable=0;points=[[0,0.5],[1,0.5]];portConstraint=eastwest;fontSize=11;whiteSpace=wrap;html=1;fontFamily=Helvetica;fontColor=default;labelBackgroundColor=default;resizable=1;" vertex="1" parent="u8HoLATWEpsCpUUx1uBB-49">
          <mxGeometry x="30.5" width="370" height="30" as="geometry" />
        </mxCell>
        <mxCell id="u8HoLATWEpsCpUUx1uBB-50" value="" style="group" connectable="0" vertex="1" parent="1">
          <mxGeometry x="369.5" y="610" width="360" height="30" as="geometry" />
        </mxCell>
        <mxCell id="u8HoLATWEpsCpUUx1uBB-25" value="finalizarVista()" style="text;html=1;align=center;verticalAlign=middle;whiteSpace=wrap;rounded=0;" vertex="1" parent="u8HoLATWEpsCpUUx1uBB-50">
          <mxGeometry x="138" width="60" height="30" as="geometry" />
        </mxCell>
        <mxCell id="u8HoLATWEpsCpUUx1uBB-26" value="" style="endArrow=block;endFill=1;html=1;edgeStyle=orthogonalEdgeStyle;align=left;verticalAlign=top;rounded=0;" edge="1" parent="u8HoLATWEpsCpUUx1uBB-50">
          <mxGeometry x="-1" relative="1" as="geometry">
            <mxPoint y="28" as="sourcePoint" />
            <mxPoint x="360" y="28" as="targetPoint" />
          </mxGeometry>
        </mxCell>
        <mxCell id="u8HoLATWEpsCpUUx1uBB-51" value="" style="group" connectable="0" vertex="1" parent="1">
          <mxGeometry x="1115" y="434.18" width="335" height="30.819999999999993" as="geometry" />
        </mxCell>
        <mxCell id="_yzf1_SDmJfY8t1Ya5ZM-24" value="finalizarVista()" style="text;html=1;align=center;verticalAlign=middle;whiteSpace=wrap;rounded=0;" vertex="1" parent="u8HoLATWEpsCpUUx1uBB-51">
          <mxGeometry x="138" width="60" height="30" as="geometry" />
        </mxCell>
        <mxCell id="_yzf1_SDmJfY8t1Ya5ZM-25" value="" style="endArrow=block;endFill=1;html=1;edgeStyle=orthogonalEdgeStyle;align=left;verticalAlign=top;rounded=0;" edge="1" parent="u8HoLATWEpsCpUUx1uBB-51">
          <mxGeometry x="-1" relative="1" as="geometry">
            <mxPoint y="30" as="sourcePoint" />
            <mxPoint x="335" y="30.819999999999993" as="targetPoint" />
            <Array as="points">
              <mxPoint x="168" y="29.819999999999993" />
              <mxPoint x="335" y="30.819999999999993" />
            </Array>
          </mxGeometry>
        </mxCell>
        <mxCell id="u8HoLATWEpsCpUUx1uBB-52" value="" style="group" connectable="0" vertex="1" parent="1">
          <mxGeometry x="1115" y="844.1800000000001" width="335" height="30.819999999999936" as="geometry" />
        </mxCell>
        <mxCell id="_yzf1_SDmJfY8t1Ya5ZM-50" value="finalizarVista()" style="text;html=1;align=center;verticalAlign=middle;whiteSpace=wrap;rounded=0;" vertex="1" parent="u8HoLATWEpsCpUUx1uBB-52">
          <mxGeometry x="138" width="60" height="30" as="geometry" />
        </mxCell>
        <mxCell id="_yzf1_SDmJfY8t1Ya5ZM-51" value="" style="endArrow=block;endFill=1;html=1;edgeStyle=orthogonalEdgeStyle;align=left;verticalAlign=top;rounded=0;" edge="1" parent="u8HoLATWEpsCpUUx1uBB-52">
          <mxGeometry x="-1" relative="1" as="geometry">
            <mxPoint y="30" as="sourcePoint" />
            <mxPoint x="335" y="30.819999999999936" as="targetPoint" />
            <Array as="points">
              <mxPoint x="168" y="29.819999999999936" />
              <mxPoint x="335" y="30.819999999999936" />
            </Array>
          </mxGeometry>
        </mxCell>
        <mxCell id="u8HoLATWEpsCpUUx1uBB-53" value="" style="group" connectable="0" vertex="1" parent="1">
          <mxGeometry x="304.5" y="1370" width="335" height="30" as="geometry" />
        </mxCell>
        <mxCell id="_yzf1_SDmJfY8t1Ya5ZM-75" value="finalizarVista()" style="text;html=1;align=center;verticalAlign=middle;whiteSpace=wrap;rounded=0;" vertex="1" parent="u8HoLATWEpsCpUUx1uBB-53">
          <mxGeometry x="129.5" width="60" height="30" as="geometry" />
        </mxCell>
        <mxCell id="_yzf1_SDmJfY8t1Ya5ZM-76" value="" style="endArrow=block;endFill=1;html=1;edgeStyle=orthogonalEdgeStyle;align=left;verticalAlign=top;rounded=0;" edge="1" parent="u8HoLATWEpsCpUUx1uBB-53">
          <mxGeometry x="-1" relative="1" as="geometry">
            <mxPoint y="24.180000000000064" as="sourcePoint" />
            <mxPoint x="335" y="25" as="targetPoint" />
            <Array as="points">
              <mxPoint x="168" y="24" />
              <mxPoint x="335" y="25" />
            </Array>
          </mxGeometry>
        </mxCell>
        <mxCell id="_yzf1_SDmJfY8t1Ya5ZM-93" value="&lt;div&gt;DSS: Actualizar prestamo&amp;nbsp;&lt;/div&gt;&lt;div&gt;(con memoria)&lt;/div&gt;" style="shape=umlFrame;whiteSpace=wrap;html=1;pointerEvents=0;fillColor=#f8cecc;strokeColor=#b85450;width=170;height=30;" vertex="1" parent="1">
          <mxGeometry x="239.5" y="1530" width="500" height="320" as="geometry" />
        </mxCell>
        <mxCell id="_yzf1_SDmJfY8t1Ya5ZM-94" value="Usuario&lt;div&gt;Administrador&lt;/div&gt;" style="shape=umlActor;verticalLabelPosition=bottom;verticalAlign=top;html=1;" vertex="1" parent="1">
          <mxGeometry x="289.5" y="1580" width="30" height="60" as="geometry" />
        </mxCell>
        <mxCell id="_yzf1_SDmJfY8t1Ya5ZM-95" value="" style="endArrow=open;endSize=12;dashed=1;html=1;rounded=0;" edge="1" parent="1">
          <mxGeometry width="160" relative="1" as="geometry">
            <mxPoint x="303.97" y="1676" as="sourcePoint" />
            <mxPoint x="304" y="1880" as="targetPoint" />
            <Array as="points">
              <mxPoint x="303.97" y="1796" />
            </Array>
          </mxGeometry>
        </mxCell>
        <mxCell id="_yzf1_SDmJfY8t1Ya5ZM-96" value=":Sistema" style="html=1;whiteSpace=wrap;" vertex="1" parent="1">
          <mxGeometry x="599.5" y="1640" width="71" height="30" as="geometry" />
        </mxCell>
        <mxCell id="_yzf1_SDmJfY8t1Ya5ZM-97" value="" style="endArrow=open;endSize=12;dashed=1;html=1;rounded=0;" edge="1" parent="1">
          <mxGeometry width="160" relative="1" as="geometry">
            <mxPoint x="635.5" y="1670" as="sourcePoint" />
            <mxPoint x="636" y="1880" as="targetPoint" />
          </mxGeometry>
        </mxCell>
        <mxCell id="_yzf1_SDmJfY8t1Ya5ZM-98" value="actualizarPrestamo(fechaSolicitud: dtFecha, nombreLector: string,&lt;div&gt;&amp;nbsp;numEmpleado: integer):dtPrestamo&lt;/div&gt;" style="html=1;verticalAlign=bottom;endArrow=block;curved=0;rounded=0;" edge="1" parent="1">
          <mxGeometry width="80" relative="1" as="geometry">
            <mxPoint x="304.5" y="1750" as="sourcePoint" />
            <mxPoint x="634.5" y="1750" as="targetPoint" />
          </mxGeometry>
        </mxCell>
        <mxCell id="_yzf1_SDmJfY8t1Ya5ZM-104" value="" style="group" connectable="0" vertex="1" parent="1">
          <mxGeometry x="304.5" y="1780" width="335" height="30" as="geometry" />
        </mxCell>
        <mxCell id="_yzf1_SDmJfY8t1Ya5ZM-105" value="finalizarVista()" style="text;html=1;align=center;verticalAlign=middle;whiteSpace=wrap;rounded=0;" vertex="1" parent="_yzf1_SDmJfY8t1Ya5ZM-104">
          <mxGeometry x="129.5" width="60" height="30" as="geometry" />
        </mxCell>
        <mxCell id="_yzf1_SDmJfY8t1Ya5ZM-106" value="" style="endArrow=block;endFill=1;html=1;edgeStyle=orthogonalEdgeStyle;align=left;verticalAlign=top;rounded=0;" edge="1" parent="_yzf1_SDmJfY8t1Ya5ZM-104">
          <mxGeometry x="-1" relative="1" as="geometry">
            <mxPoint y="24.180000000000064" as="sourcePoint" />
            <mxPoint x="335" y="25" as="targetPoint" />
            <Array as="points">
              <mxPoint x="168" y="24" />
              <mxPoint x="335" y="25" />
            </Array>
          </mxGeometry>
        </mxCell>
        <mxCell id="IK1fP0KDzD4i9eeec2DN-25" value="&lt;div&gt;DSS: Listar prestamos por bibliotecario con memoria.&lt;/div&gt;" style="shape=umlFrame;whiteSpace=wrap;html=1;pointerEvents=0;fillColor=#f8cecc;strokeColor=#b85450;width=170;height=30;" vertex="1" parent="1">
          <mxGeometry x="940" y="1550" width="500" height="340" as="geometry" />
        </mxCell>
        <mxCell id="IK1fP0KDzD4i9eeec2DN-26" value="Usuario&lt;div&gt;Administrador&lt;/div&gt;" style="shape=umlActor;verticalLabelPosition=bottom;verticalAlign=top;html=1;" vertex="1" parent="1">
          <mxGeometry x="990" y="1600" width="30" height="60" as="geometry" />
        </mxCell>
        <mxCell id="IK1fP0KDzD4i9eeec2DN-27" value="" style="endArrow=open;endSize=12;dashed=1;html=1;rounded=0;" edge="1" parent="1">
          <mxGeometry width="160" relative="1" as="geometry">
            <mxPoint x="1004.47" y="1696" as="sourcePoint" />
            <mxPoint x="1004" y="1910" as="targetPoint" />
            <Array as="points">
              <mxPoint x="1004.47" y="1816" />
            </Array>
          </mxGeometry>
        </mxCell>
        <mxCell id="IK1fP0KDzD4i9eeec2DN-28" value="&lt;u&gt;:Sistema&lt;/u&gt;" style="html=1;whiteSpace=wrap;" vertex="1" parent="1">
          <mxGeometry x="1300" y="1660" width="71" height="30" as="geometry" />
        </mxCell>
        <mxCell id="IK1fP0KDzD4i9eeec2DN-29" value="" style="endArrow=open;endSize=12;dashed=1;html=1;rounded=0;" edge="1" parent="1">
          <mxGeometry width="160" relative="1" as="geometry">
            <mxPoint x="1336" y="1690" as="sourcePoint" />
            <mxPoint x="1336" y="1910" as="targetPoint" />
          </mxGeometry>
        </mxCell>
        <mxCell id="IK1fP0KDzD4i9eeec2DN-30" value="loop" style="shape=umlFrame;whiteSpace=wrap;html=1;pointerEvents=0;fillColor=#d5e8d4;strokeColor=#82b366;" vertex="1" parent="1">
          <mxGeometry x="965" y="1700" width="400" height="130" as="geometry" />
        </mxCell>
        <mxCell id="IK1fP0KDzD4i9eeec2DN-31" value="" style="shape=table;startSize=0;container=1;collapsible=1;childLayout=tableLayout;fixedRows=1;rowLines=0;fontStyle=0;align=center;resizeLast=1;strokeColor=none;fillColor=none;collapsible=0;whiteSpace=wrap;html=1;" vertex="1" parent="1">
          <mxGeometry x="980" y="1710" width="330" height="30" as="geometry" />
        </mxCell>
        <mxCell id="IK1fP0KDzD4i9eeec2DN-32" value="" style="shape=tableRow;horizontal=0;startSize=0;swimlaneHead=0;swimlaneBody=0;fillColor=none;collapsible=0;dropTarget=0;points=[[0,0.5],[1,0.5]];portConstraint=eastwest;top=0;left=0;right=0;bottom=0;" vertex="1" parent="IK1fP0KDzD4i9eeec2DN-31">
          <mxGeometry width="330" height="30" as="geometry" />
        </mxCell>
        <mxCell id="IK1fP0KDzD4i9eeec2DN-33" value="" style="shape=partialRectangle;connectable=0;fillColor=none;top=0;left=0;bottom=0;right=0;editable=1;overflow=hidden;" vertex="1" parent="IK1fP0KDzD4i9eeec2DN-32">
          <mxGeometry width="30" height="30" as="geometry">
            <mxRectangle width="30" height="30" as="alternateBounds" />
          </mxGeometry>
        </mxCell>
        <mxCell id="IK1fP0KDzD4i9eeec2DN-34" value=" [Se desea registrar una nueva donación]" style="shape=partialRectangle;connectable=0;fillColor=none;top=0;left=0;bottom=0;right=0;align=left;spacingLeft=6;overflow=hidden;" vertex="1" parent="IK1fP0KDzD4i9eeec2DN-32">
          <mxGeometry x="30" width="300" height="30" as="geometry">
            <mxRectangle width="300" height="30" as="alternateBounds" />
          </mxGeometry>
        </mxCell>
        <mxCell id="IK1fP0KDzD4i9eeec2DN-35" value="ListarPrestamoGestionado(user:numEmp):SetDtPrestamo" style="html=1;verticalAlign=bottom;endArrow=block;curved=0;rounded=0;" edge="1" parent="1">
          <mxGeometry width="80" relative="1" as="geometry">
            <mxPoint x="1005" y="1770" as="sourcePoint" />
            <mxPoint x="1335" y="1770" as="targetPoint" />
            <mxPoint as="offset" />
          </mxGeometry>
        </mxCell>
        <mxCell id="u8HoLATWEpsCpUUx1uBB-54" value="&lt;div&gt;DSS: Alta prestamo (con memoria)&lt;/div&gt;" style="shape=umlFrame;whiteSpace=wrap;html=1;pointerEvents=0;fillColor=#f8cecc;strokeColor=#b85450;width=170;height=30;" vertex="1" parent="1">
          <mxGeometry x="239.5" y="2010" width="500" height="340" as="geometry" />
        </mxCell>
        <mxCell id="u8HoLATWEpsCpUUx1uBB-55" value="Usuario&lt;div&gt;Administrador&lt;/div&gt;" style="shape=umlActor;verticalLabelPosition=bottom;verticalAlign=top;html=1;" vertex="1" parent="1">
          <mxGeometry x="289.5" y="2060" width="30" height="60" as="geometry" />
        </mxCell>
        <mxCell id="u8HoLATWEpsCpUUx1uBB-56" value="" style="endArrow=open;endSize=12;dashed=1;html=1;rounded=0;" edge="1" parent="1">
          <mxGeometry width="160" relative="1" as="geometry">
            <mxPoint x="303.97" y="2156" as="sourcePoint" />
            <mxPoint x="303.5" y="2370" as="targetPoint" />
            <Array as="points">
              <mxPoint x="303.97" y="2276" />
            </Array>
          </mxGeometry>
        </mxCell>
        <mxCell id="u8HoLATWEpsCpUUx1uBB-57" value=":Sistema" style="html=1;whiteSpace=wrap;" vertex="1" parent="1">
          <mxGeometry x="599.5" y="2120" width="71" height="30" as="geometry" />
        </mxCell>
        <mxCell id="u8HoLATWEpsCpUUx1uBB-58" value="" style="endArrow=open;endSize=12;dashed=1;html=1;rounded=0;" edge="1" parent="1">
          <mxGeometry width="160" relative="1" as="geometry">
            <mxPoint x="635.5" y="2150" as="sourcePoint" />
            <mxPoint x="635.5" y="2370" as="targetPoint" />
          </mxGeometry>
        </mxCell>
        <mxCell id="u8HoLATWEpsCpUUx1uBB-59" value="loop" style="shape=umlFrame;whiteSpace=wrap;html=1;pointerEvents=0;fillColor=#d5e8d4;strokeColor=#82b366;" vertex="1" parent="1">
          <mxGeometry x="264.5" y="2160" width="400" height="130" as="geometry" />
        </mxCell>
        <mxCell id="u8HoLATWEpsCpUUx1uBB-60" value="" style="shape=table;startSize=0;container=1;collapsible=1;childLayout=tableLayout;fixedRows=1;rowLines=0;fontStyle=0;align=center;resizeLast=1;strokeColor=none;fillColor=none;collapsible=0;whiteSpace=wrap;html=1;" vertex="1" parent="1">
          <mxGeometry x="279.5" y="2170" width="330" height="30" as="geometry" />
        </mxCell>
        <mxCell id="u8HoLATWEpsCpUUx1uBB-61" value="" style="shape=tableRow;horizontal=0;startSize=0;swimlaneHead=0;swimlaneBody=0;fillColor=none;collapsible=0;dropTarget=0;points=[[0,0.5],[1,0.5]];portConstraint=eastwest;top=0;left=0;right=0;bottom=0;" vertex="1" parent="u8HoLATWEpsCpUUx1uBB-60">
          <mxGeometry width="330" height="30" as="geometry" />
        </mxCell>
        <mxCell id="u8HoLATWEpsCpUUx1uBB-62" value="" style="shape=partialRectangle;connectable=0;fillColor=none;top=0;left=0;bottom=0;right=0;editable=1;overflow=hidden;" vertex="1" parent="u8HoLATWEpsCpUUx1uBB-61">
          <mxGeometry width="30" height="30" as="geometry">
            <mxRectangle width="30" height="30" as="alternateBounds" />
          </mxGeometry>
        </mxCell>
        <mxCell id="u8HoLATWEpsCpUUx1uBB-63" value=" [Se desea registrar un nuevo prestamo]" style="shape=partialRectangle;connectable=0;fillColor=none;top=0;left=0;bottom=0;right=0;align=left;spacingLeft=6;overflow=hidden;" vertex="1" parent="u8HoLATWEpsCpUUx1uBB-61">
          <mxGeometry x="30" width="300" height="30" as="geometry">
            <mxRectangle width="300" height="30" as="alternateBounds" />
          </mxGeometry>
        </mxCell>
        <mxCell id="IK1fP0KDzD4i9eeec2DN-36" value="&lt;&lt;DataType&gt;&gt;&#xa;DtPrestamo" style="swimlane;fontStyle=2;align=center;verticalAlign=top;childLayout=stackLayout;horizontal=1;startSize=40;horizontalStack=0;resizeParent=1;resizeLast=0;collapsible=1;marginBottom=0;rounded=0;shadow=0;strokeWidth=1;" vertex="1" parent="1">
          <mxGeometry x="1460" y="1580" width="170" height="130" as="geometry">
            <mxRectangle x="230" y="140" width="160" height="26" as="alternateBounds" />
          </mxGeometry>
        </mxCell>
        <mxCell id="IK1fP0KDzD4i9eeec2DN-37" value="-fechaSolicitud: dtFecha&lt;div&gt;-fechaDevolucion: dtFecha&lt;/div&gt;&lt;div&gt;estado: enumEstadoMaterial&lt;/div&gt;" style="text;html=1;align=center;verticalAlign=middle;whiteSpace=wrap;rounded=0;" vertex="1" parent="IK1fP0KDzD4i9eeec2DN-36">
          <mxGeometry y="40" width="170" height="74" as="geometry" />
        </mxCell>
        <mxCell id="_yzf1_SDmJfY8t1Ya5ZM-110" value="&lt;div&gt;DSS: Listar prestamos activos&lt;/div&gt;" style="shape=umlFrame;whiteSpace=wrap;html=1;pointerEvents=0;fillColor=#f8cecc;strokeColor=#b85450;width=170;height=30;" vertex="1" parent="1">
          <mxGeometry x="945" y="2000" width="500" height="310" as="geometry" />
        </mxCell>
        <mxCell id="_yzf1_SDmJfY8t1Ya5ZM-111" value="Usuario&lt;div&gt;Administrador&lt;/div&gt;" style="shape=umlActor;verticalLabelPosition=bottom;verticalAlign=top;html=1;" vertex="1" parent="1">
          <mxGeometry x="995" y="2050" width="30" height="60" as="geometry" />
        </mxCell>
        <mxCell id="_yzf1_SDmJfY8t1Ya5ZM-112" value="" style="endArrow=open;endSize=12;dashed=1;html=1;rounded=0;" edge="1" parent="1">
          <mxGeometry width="160" relative="1" as="geometry">
            <mxPoint x="1009.47" y="2146" as="sourcePoint" />
            <mxPoint x="1009" y="2360" as="targetPoint" />
            <Array as="points">
              <mxPoint x="1009.47" y="2266" />
            </Array>
          </mxGeometry>
        </mxCell>
        <mxCell id="_yzf1_SDmJfY8t1Ya5ZM-113" value=":Sistema" style="html=1;whiteSpace=wrap;" vertex="1" parent="1">
          <mxGeometry x="1305" y="2110" width="71" height="30" as="geometry" />
        </mxCell>
        <mxCell id="_yzf1_SDmJfY8t1Ya5ZM-114" value="" style="endArrow=open;endSize=12;dashed=1;html=1;rounded=0;" edge="1" parent="1">
          <mxGeometry width="160" relative="1" as="geometry">
            <mxPoint x="1341" y="2140" as="sourcePoint" />
            <mxPoint x="1341" y="2360" as="targetPoint" />
          </mxGeometry>
        </mxCell>
        <mxCell id="_yzf1_SDmJfY8t1Ya5ZM-115" value="listarPrestamoActivo(nombreUsuario: string, mail: string,&lt;span style=&quot;background-color: light-dark(#ffffff, var(--ge-dark-color, #121212)); color: light-dark(rgb(0, 0, 0), rgb(255, 255, 255));&quot;&gt;)&lt;/span&gt;&lt;span style=&quot;background-color: light-dark(#ffffff, var(--ge-dark-color, #121212)); color: light-dark(rgb(0, 0, 0), rgb(255, 255, 255));&quot;&gt;:&lt;/span&gt;&lt;div&gt;&lt;span style=&quot;background-color: light-dark(#ffffff, var(--ge-dark-color, #121212)); color: light-dark(rgb(0, 0, 0), rgb(255, 255, 255));&quot;&gt;set(dtPrestamo)&lt;/span&gt;&lt;/div&gt;" style="html=1;verticalAlign=bottom;endArrow=block;curved=0;rounded=0;" edge="1" parent="1">
          <mxGeometry x="0.0013" width="80" relative="1" as="geometry">
            <mxPoint x="1010" y="2220" as="sourcePoint" />
            <mxPoint x="1340" y="2220" as="targetPoint" />
            <mxPoint as="offset" />
          </mxGeometry>
        </mxCell>
        <mxCell id="_yzf1_SDmJfY8t1Ya5ZM-121" value="" style="group" connectable="0" vertex="1" parent="1">
          <mxGeometry x="1010" y="2260" width="335" height="30" as="geometry" />
        </mxCell>
        <mxCell id="_yzf1_SDmJfY8t1Ya5ZM-122" value="finalizarVista()" style="text;html=1;align=center;verticalAlign=middle;whiteSpace=wrap;rounded=0;" vertex="1" parent="_yzf1_SDmJfY8t1Ya5ZM-121">
          <mxGeometry x="129.5" width="60" height="30" as="geometry" />
        </mxCell>
        <mxCell id="_yzf1_SDmJfY8t1Ya5ZM-123" value="" style="endArrow=block;endFill=1;html=1;edgeStyle=orthogonalEdgeStyle;align=left;verticalAlign=top;rounded=0;" edge="1" parent="_yzf1_SDmJfY8t1Ya5ZM-121">
          <mxGeometry x="-1" relative="1" as="geometry">
            <mxPoint y="24.180000000000064" as="sourcePoint" />
            <mxPoint x="335" y="25" as="targetPoint" />
            <Array as="points">
              <mxPoint x="168" y="24" />
              <mxPoint x="335" y="25" />
            </Array>
          </mxGeometry>
        </mxCell>
        <mxCell id="_yzf1_SDmJfY8t1Ya5ZM-124" value="loop" style="shape=umlFrame;whiteSpace=wrap;html=1;pointerEvents=0;fillColor=#d5e8d4;strokeColor=#82b366;" vertex="1" parent="1">
          <mxGeometry x="264.5" y="1690" width="400" height="80" as="geometry" />
        </mxCell>
        <mxCell id="_yzf1_SDmJfY8t1Ya5ZM-125" value="" style="shape=table;startSize=0;container=1;collapsible=1;childLayout=tableLayout;fixedRows=1;rowLines=0;fontStyle=0;align=center;resizeLast=1;strokeColor=none;fillColor=none;collapsible=0;whiteSpace=wrap;html=1;" vertex="1" parent="1">
          <mxGeometry x="279.5" y="1700" width="330" height="30" as="geometry" />
        </mxCell>
        <mxCell id="_yzf1_SDmJfY8t1Ya5ZM-126" value="" style="shape=tableRow;horizontal=0;startSize=0;swimlaneHead=0;swimlaneBody=0;fillColor=none;collapsible=0;dropTarget=0;points=[[0,0.5],[1,0.5]];portConstraint=eastwest;top=0;left=0;right=0;bottom=0;" vertex="1" parent="_yzf1_SDmJfY8t1Ya5ZM-125">
          <mxGeometry width="330" height="30" as="geometry" />
        </mxCell>
        <mxCell id="_yzf1_SDmJfY8t1Ya5ZM-127" value="" style="shape=partialRectangle;connectable=0;fillColor=none;top=0;left=0;bottom=0;right=0;editable=1;overflow=hidden;" vertex="1" parent="_yzf1_SDmJfY8t1Ya5ZM-126">
          <mxGeometry width="30" height="30" as="geometry">
            <mxRectangle width="30" height="30" as="alternateBounds" />
          </mxGeometry>
        </mxCell>
        <mxCell id="_yzf1_SDmJfY8t1Ya5ZM-128" value=" [Se desea registrar un nuevo prestamo]" style="shape=partialRectangle;connectable=0;fillColor=none;top=0;left=0;bottom=0;right=0;align=left;spacingLeft=6;overflow=hidden;" vertex="1" parent="_yzf1_SDmJfY8t1Ya5ZM-126">
          <mxGeometry x="30" width="300" height="30" as="geometry">
            <mxRectangle width="300" height="30" as="alternateBounds" />
          </mxGeometry>
        </mxCell>
        <mxCell id="_yzf1_SDmJfY8t1Ya5ZM-129" value="&lt;div&gt;DSS: Listar mas prestados&lt;/div&gt;" style="shape=umlFrame;whiteSpace=wrap;html=1;pointerEvents=0;fillColor=#f8cecc;strokeColor=#b85450;width=170;height=30;" vertex="1" parent="1">
          <mxGeometry x="945" y="2430" width="500" height="310" as="geometry" />
        </mxCell>
        <mxCell id="u8HoLATWEpsCpUUx1uBB-65" value="&lt;div&gt;DSS: Listar por zona&lt;/div&gt;" style="shape=umlFrame;whiteSpace=wrap;html=1;pointerEvents=0;fillColor=#f8cecc;strokeColor=#b85450;width=181;height=30;" vertex="1" parent="1">
          <mxGeometry x="239.5" y="2450" width="500" height="310" as="geometry" />
        </mxCell>
        <mxCell id="_yzf1_SDmJfY8t1Ya5ZM-130" value="Usuario&lt;div&gt;Administrador&lt;/div&gt;" style="shape=umlActor;verticalLabelPosition=bottom;verticalAlign=top;html=1;" vertex="1" parent="1">
          <mxGeometry x="995" y="2480" width="30" height="60" as="geometry" />
        </mxCell>
        <mxCell id="u8HoLATWEpsCpUUx1uBB-66" value="Usuario&lt;div&gt;Administrador&lt;/div&gt;" style="shape=umlActor;verticalLabelPosition=bottom;verticalAlign=top;html=1;" vertex="1" parent="1">
          <mxGeometry x="289.5" y="2500" width="30" height="60" as="geometry" />
        </mxCell>
        <mxCell id="_yzf1_SDmJfY8t1Ya5ZM-131" value="" style="endArrow=open;endSize=12;dashed=1;html=1;rounded=0;" edge="1" parent="1">
          <mxGeometry width="160" relative="1" as="geometry">
            <mxPoint x="1009.47" y="2576" as="sourcePoint" />
            <mxPoint x="1009" y="2790" as="targetPoint" />
            <Array as="points">
              <mxPoint x="1009.47" y="2696" />
            </Array>
          </mxGeometry>
        </mxCell>
        <mxCell id="u8HoLATWEpsCpUUx1uBB-67" value="" style="endArrow=open;endSize=12;dashed=1;html=1;rounded=0;" edge="1" parent="1">
          <mxGeometry width="160" relative="1" as="geometry">
            <mxPoint x="303.97" y="2596" as="sourcePoint" />
            <mxPoint x="303.5" y="2810" as="targetPoint" />
            <Array as="points">
              <mxPoint x="303.97" y="2716" />
            </Array>
          </mxGeometry>
        </mxCell>
        <mxCell id="_yzf1_SDmJfY8t1Ya5ZM-132" value=":Sistema" style="html=1;whiteSpace=wrap;" vertex="1" parent="1">
          <mxGeometry x="1305" y="2540" width="71" height="30" as="geometry" />
        </mxCell>
        <mxCell id="u8HoLATWEpsCpUUx1uBB-68" value=":Sistema" style="html=1;whiteSpace=wrap;" vertex="1" parent="1">
          <mxGeometry x="599.5" y="2560" width="71" height="30" as="geometry" />
        </mxCell>
        <mxCell id="_yzf1_SDmJfY8t1Ya5ZM-133" value="" style="endArrow=open;endSize=12;dashed=1;html=1;rounded=0;" edge="1" parent="1">
          <mxGeometry width="160" relative="1" as="geometry">
            <mxPoint x="1341" y="2570" as="sourcePoint" />
            <mxPoint x="1341" y="2790" as="targetPoint" />
          </mxGeometry>
        </mxCell>
        <mxCell id="u8HoLATWEpsCpUUx1uBB-69" value="" style="endArrow=open;endSize=12;dashed=1;html=1;rounded=0;" edge="1" parent="1">
          <mxGeometry width="160" relative="1" as="geometry">
            <mxPoint x="635.5" y="2590" as="sourcePoint" />
            <mxPoint x="635.5" y="2810" as="targetPoint" />
          </mxGeometry>
        </mxCell>
        <mxCell id="_yzf1_SDmJfY8t1Ya5ZM-134" value="listarTopPrestamos():set(DtPrestamo)" style="html=1;verticalAlign=bottom;endArrow=block;curved=0;rounded=0;" edge="1" parent="1">
          <mxGeometry x="0.0013" width="80" relative="1" as="geometry">
            <mxPoint x="1010" y="2650" as="sourcePoint" />
            <mxPoint x="1340" y="2650" as="targetPoint" />
            <mxPoint as="offset" />
          </mxGeometry>
        </mxCell>
        <mxCell id="u8HoLATWEpsCpUUx1uBB-70" value="listarPrestamoZona(zona:enumZona&lt;span style=&quot;background-color: light-dark(#ffffff, var(--ge-dark-color, #121212)); color: light-dark(rgb(0, 0, 0), rgb(255, 255, 255));&quot;&gt;)&lt;/span&gt;" style="html=1;verticalAlign=bottom;endArrow=block;curved=0;rounded=0;" edge="1" parent="1">
          <mxGeometry x="0.0013" width="80" relative="1" as="geometry">
            <mxPoint x="304.5" y="2670" as="sourcePoint" />
            <mxPoint x="634.5" y="2670" as="targetPoint" />
            <mxPoint as="offset" />
          </mxGeometry>
        </mxCell>
        <mxCell id="_yzf1_SDmJfY8t1Ya5ZM-135" value="" style="group" connectable="0" vertex="1" parent="1">
          <mxGeometry x="1010" y="2690" width="335" height="30" as="geometry" />
        </mxCell>
        <mxCell id="_yzf1_SDmJfY8t1Ya5ZM-136" value="finalizarVista()" style="text;html=1;align=center;verticalAlign=middle;whiteSpace=wrap;rounded=0;" vertex="1" parent="_yzf1_SDmJfY8t1Ya5ZM-135">
          <mxGeometry x="129.5" width="60" height="30" as="geometry" />
        </mxCell>
        <mxCell id="_yzf1_SDmJfY8t1Ya5ZM-137" value="" style="endArrow=block;endFill=1;html=1;edgeStyle=orthogonalEdgeStyle;align=left;verticalAlign=top;rounded=0;" edge="1" parent="_yzf1_SDmJfY8t1Ya5ZM-135">
          <mxGeometry x="-1" relative="1" as="geometry">
            <mxPoint y="24.180000000000064" as="sourcePoint" />
            <mxPoint x="335" y="25" as="targetPoint" />
            <Array as="points">
              <mxPoint x="168" y="24" />
              <mxPoint x="335" y="25" />
            </Array>
          </mxGeometry>
        </mxCell>
        <mxCell id="u8HoLATWEpsCpUUx1uBB-71" value="" style="group" connectable="0" vertex="1" parent="1">
          <mxGeometry x="304.5" y="2710" width="335" height="30" as="geometry" />
        </mxCell>
        <mxCell id="u8HoLATWEpsCpUUx1uBB-72" value="finalizarVista()" style="text;html=1;align=center;verticalAlign=middle;whiteSpace=wrap;rounded=0;" vertex="1" parent="u8HoLATWEpsCpUUx1uBB-71">
          <mxGeometry x="129.5" width="60" height="30" as="geometry" />
        </mxCell>
        <mxCell id="u8HoLATWEpsCpUUx1uBB-73" value="" style="endArrow=block;endFill=1;html=1;edgeStyle=orthogonalEdgeStyle;align=left;verticalAlign=top;rounded=0;" edge="1" parent="u8HoLATWEpsCpUUx1uBB-71">
          <mxGeometry x="-1" relative="1" as="geometry">
            <mxPoint y="24.180000000000064" as="sourcePoint" />
            <mxPoint x="335" y="25" as="targetPoint" />
            <Array as="points">
              <mxPoint x="168" y="24" />
              <mxPoint x="335" y="25" />
            </Array>
          </mxGeometry>
        </mxCell>
      </root>
    </mxGraphModel>
  </diagram>
</mxfile>
